<svg width="32" height="33" viewBox="0 0 32 33" fill="none" xmlns="http://www.w3.org/2000/svg">
<path d="M31.9713 16.6245C31.9713 15.5124 31.8832 14.3942 31.6951 13.3H16.6113V19.6003H25.2491C24.8907 21.6323 23.4178 23.6778 21.7313 24.82L22.0526 28.66L26.8513 28.66C29.8775 25.8105 31.9713 21.6023 31.9713 16.6245Z" fill="#4285F4"/>
<path d="M16.2218 32.4999C20.5468 32.4999 24.1941 31.0978 26.8516 28.6774L21.7316 24.8199C20.2939 25.7858 18.3902 26.2338 16.2277 26.2338C12.0441 26.2338 8.28435 23.4469 7.0116 19.7H1.8916V23.7785C4.61387 29.1254 10.1586 32.4999 16.2218 32.4999Z" fill="#5FB065"/>
<path d="M7.01169 19.7001C6.27812 17.7529 6.59812 15.2474 7.33169 13.3001L7.65169 9.46014L1.89168 9.14014C-0.592174 13.5704 -0.649266 19.1099 1.83459 23.5401L7.01169 19.7001Z" fill="#FBBC04"/>
<path d="M16.5305 6.76388C18.866 6.72899 21.1232 7.57798 22.8146 9.13642L27.4916 4.61812C24.5301 1.93157 20.5995 0.454546 16.5305 0.501066C10.3366 0.501066 4.67251 3.79015 1.8916 9.14L7.33303 13.3C8.62717 9.54929 12.2568 6.76388 16.5305 6.76388Z" fill="#EA4335"/>
</svg>
